<?xml version="1.0" encoding="utf-8"?>
<!-- Generator: Adobe Illustrator 16.0.3, SVG Export Plug-In . SVG Version: 6.00 Build 0)  -->
<!DOCTYPE svg PUBLIC "-//W3C//DTD SVG 1.1//EN" "http://www.w3.org/Graphics/SVG/1.1/DTD/svg11.dtd">
<svg version="1.1" id="Capa_1" xmlns="http://www.w3.org/2000/svg" xmlns:xlink="http://www.w3.org/1999/xlink" x="0px" y="0px"
	 width="100px" height="100px" viewBox="0 0 100 100" enable-background="new 0 0 100 100" xml:space="preserve">
<g>
	<path fill-rule="evenodd" clip-rule="evenodd" fill="#F2F2F2" d="M35.836,51.772c-0.338-0.262-0.707-0.493-1.007-0.792
		C24.199,40.359,13.572,29.732,2.95,19.101c-1.995-1.997-2.596-4.33-1.159-6.255c1.321-1.771,2.968-3.381,4.732-4.718
		c1.625-1.231,3.535-0.908,5.2,0.288C12.19,8.752,12.6,9.175,13.01,9.585c12.765,12.759,25.529,25.522,38.291,38.286
		c2.879,2.88,2.871,5.417-0.031,8.319c-12.789,12.793-25.58,25.581-38.37,38.37c-2.779,2.779-5.38,2.788-8.142,0.03
		c-0.822-0.821-1.671-1.621-2.439-2.489c-1.7-1.923-1.701-4.512-0.041-6.457c0.351-0.411,0.74-0.791,1.124-1.175
		c10.489-10.49,20.976-20.98,31.476-31.46c0.296-0.296,0.719-0.465,1.083-0.695C35.918,52.135,35.877,51.953,35.836,51.772z"/>
</g>
<g>
	<path fill-rule="evenodd" clip-rule="evenodd" fill="#F2F2F2" d="M82.383,51.772c-0.338-0.262-0.707-0.493-1.006-0.792
		c-10.631-10.622-21.258-21.249-31.88-31.879c-1.995-1.997-2.596-4.33-1.159-6.255c1.321-1.771,2.967-3.381,4.732-4.718
		c1.626-1.231,3.534-0.908,5.2,0.288c0.469,0.336,0.877,0.759,1.287,1.169c12.766,12.759,25.529,25.522,38.291,38.286
		c2.879,2.88,2.871,5.417-0.031,8.319c-12.789,12.793-25.58,25.581-38.369,38.37c-2.779,2.779-5.381,2.788-8.143,0.03
		c-0.823-0.821-1.671-1.621-2.439-2.489c-1.7-1.923-1.701-4.512-0.041-6.457c0.351-0.411,0.74-0.791,1.124-1.175
		c10.489-10.49,20.976-20.98,31.476-31.46c0.297-0.296,0.719-0.465,1.084-0.695C82.465,52.135,82.424,51.953,82.383,51.772z"/>
</g>
</svg>
