<?xml version="1.0" encoding="utf-8"?>
<!-- Generator: Adobe Illustrator 16.0.3, SVG Export Plug-In . SVG Version: 6.00 Build 0)  -->
<!DOCTYPE svg PUBLIC "-//W3C//DTD SVG 1.1//EN" "http://www.w3.org/Graphics/SVG/1.1/DTD/svg11.dtd">
<svg version="1.1" id="Capa_1" xmlns="http://www.w3.org/2000/svg" xmlns:xlink="http://www.w3.org/1999/xlink" x="0px" y="0px"
	 width="260px" height="90px" viewBox="0 0 260 90" enable-background="new 0 0 260 90" xml:space="preserve">
<g>
	<path d="M53.985,26.217c1.207,2.463,1.812,5.203,1.812,8.223c0,3.021-0.604,5.749-1.812,8.188
		c-1.208,2.438-2.765,4.379-4.669,5.817c-3.856,2.975-7.851,4.461-11.985,4.461h-8.71v7.873c0,1.068-0.035,1.871-0.104,2.404
		c-0.069,0.534-0.291,1.149-0.662,1.846c-0.651,1.255-2.463,1.883-5.436,1.883c-3.252,0-5.156-0.859-5.713-2.578
		c-0.279-0.79-0.418-1.997-0.418-3.624V22.036c0-1.068,0.035-1.869,0.104-2.404c0.07-0.533,0.29-1.149,0.662-1.846
		c0.65-1.255,2.462-1.882,5.435-1.882h14.912c4.087,0,8.059,1.487,11.916,4.46C51.221,21.805,52.777,23.755,53.985,26.217z
		 M41.512,39.038c1.347-1.021,2.021-2.554,2.021-4.599c0-2.044-0.674-3.589-2.021-4.634c-1.348-1.045-2.742-1.567-4.181-1.567h-8.71
		v12.333h8.78C38.795,40.571,40.165,40.061,41.512,39.038z"/>
	<path d="M93.703,17.786c0.464-0.743,1.138-1.255,2.021-1.533c0.882-0.279,1.986-0.418,3.31-0.418c1.324,0,2.38,0.116,3.17,0.348
		c0.79,0.233,1.394,0.512,1.812,0.837s0.72,0.813,0.906,1.463c0.278,0.79,0.418,1.998,0.418,3.623V43.15
		c0,6.132-1.905,11.708-5.714,16.724c-1.858,2.369-4.25,4.285-7.177,5.749c-2.927,1.463-6.167,2.193-9.721,2.193
		s-6.783-0.742-9.686-2.229c-2.904-1.486-5.261-3.438-7.072-5.854c-3.763-4.924-5.645-10.498-5.645-16.725V22.036
		c0-1.115,0.035-1.939,0.104-2.474c0.07-0.533,0.29-1.149,0.662-1.847c0.371-0.696,0.999-1.185,1.881-1.463
		c0.882-0.279,2.066-0.418,3.554-0.418c1.486,0,2.671,0.139,3.554,0.418c0.882,0.278,1.486,0.767,1.812,1.463
		c0.557,1.069,0.836,2.532,0.836,4.39V43.01c0,2.836,0.697,5.529,2.09,8.083c0.697,1.302,1.742,2.347,3.136,3.136
		c1.394,0.791,3.042,1.186,4.947,1.186c3.391,0,5.923-1.254,7.595-3.764c1.672-2.508,2.509-5.41,2.509-8.709V21.618
		C93.006,19.807,93.238,18.529,93.703,17.786z"/>
	<path d="M144.432,55.064c1.812,0,3.123,0.222,3.938,0.662c0.813,0.441,1.369,1.08,1.672,1.916c0.302,0.836,0.453,1.905,0.453,3.205
		c0,1.301-0.116,2.348-0.35,3.137c-0.231,0.789-0.512,1.394-0.836,1.812s-0.813,0.722-1.463,0.906
		c-0.744,0.278-1.929,0.418-3.555,0.418h-28.987c-1.069,0-2.09-0.279-3.066-0.837c-2.045-1.16-3.066-2.996-3.066-5.504
		c0-1.209,0.278-2.184,0.836-2.928l21.602-29.894h-16.026c-1.115,0-1.94-0.035-2.474-0.104c-0.535-0.069-1.174-0.267-1.917-0.592
		c-1.348-0.65-2.021-2.393-2.021-5.227c0-2.973,0.627-4.784,1.881-5.435c0.697-0.372,1.312-0.593,1.846-0.662
		c0.534-0.07,1.359-0.104,2.474-0.104h28.012c1.068,0,2.091,0.278,3.065,0.836s1.73,1.301,2.265,2.229
		c0.534,0.93,0.802,2.021,0.802,3.275c0,1.254-0.277,2.254-0.836,2.996l-21.6,29.895H144.432z"/>
	<path d="M176.9,41.338c7.107,6.829,12.147,11.962,15.121,15.398c1.533,1.72,2.299,3.172,2.299,4.355s-0.93,2.578-2.786,4.182
		c-1.858,1.603-3.38,2.403-4.563,2.403s-2.613-0.976-4.285-2.927l-15.33-17.49v13.588c0,1.115-0.035,1.928-0.104,2.438
		c-0.07,0.512-0.291,1.114-0.662,1.812c-0.65,1.256-2.463,1.883-5.436,1.883c-3.252,0-5.156-0.883-5.715-2.647
		c-0.277-0.743-0.418-1.929-0.418-3.554V22.036c0-1.068,0.035-1.869,0.104-2.404c0.069-0.533,0.29-1.149,0.662-1.846
		c0.649-1.255,2.462-1.882,5.437-1.882c3.25,0,5.178,0.86,5.782,2.578c0.231,0.79,0.349,1.998,0.349,3.623v13.31
		c6.316-7.107,11.429-12.937,15.33-17.49c1.625-1.904,3.041-2.856,4.25-2.856c1.207,0,2.74,0.801,4.6,2.403
		c1.857,1.604,2.787,2.997,2.787,4.182s-0.696,2.59-2.09,4.216c-2.695,3.112-6.877,7.386-12.543,12.821L176.9,41.338z"/>
	<path d="M232.229,17.786c0.463-0.743,1.138-1.255,2.021-1.533c0.882-0.279,1.985-0.418,3.31-0.418c1.325,0,2.381,0.116,3.172,0.348
		c0.789,0.233,1.394,0.512,1.812,0.837s0.72,0.813,0.905,1.463c0.279,0.79,0.418,1.998,0.418,3.623V43.15
		c0,6.132-1.905,11.708-5.715,16.724c-1.857,2.369-4.25,4.285-7.176,5.749c-2.928,1.463-6.168,2.193-9.722,2.193
		s-6.782-0.742-9.687-2.229c-2.902-1.486-5.26-3.438-7.071-5.854c-3.763-4.924-5.646-10.498-5.646-16.725V22.036
		c0-1.115,0.035-1.939,0.104-2.474c0.069-0.533,0.29-1.149,0.662-1.847c0.37-0.696,0.997-1.185,1.882-1.463
		c0.882-0.279,2.066-0.418,3.554-0.418c1.485,0,2.671,0.139,3.554,0.418c0.883,0.278,1.485,0.767,1.813,1.463
		c0.559,1.069,0.836,2.532,0.836,4.39V43.01c0,2.836,0.697,5.529,2.092,8.083c0.695,1.302,1.74,2.347,3.135,3.136
		c1.395,0.791,3.043,1.186,4.947,1.186c3.391,0,5.924-1.254,7.596-3.764c1.672-2.508,2.509-5.41,2.509-8.709V21.618
		C231.531,19.807,231.764,18.529,232.229,17.786z"/>
</g>
</svg>
