<?xml version="1.0" encoding="utf-8"?>
<!-- Generator: Adobe Illustrator 16.0.3, SVG Export Plug-In . SVG Version: 6.00 Build 0)  -->
<!DOCTYPE svg PUBLIC "-//W3C//DTD SVG 1.1//EN" "http://www.w3.org/Graphics/SVG/1.1/DTD/svg11.dtd">
<svg version="1.1" id="Capa_1" xmlns="http://www.w3.org/2000/svg" xmlns:xlink="http://www.w3.org/1999/xlink" x="0px" y="0px"
	 width="100px" height="40px" viewBox="0 0 100 40" enable-background="new 0 0 100 40" xml:space="preserve">
<g>
	<g>
		<path fill="#F2F2F2" d="M6.451,18.845c0.37,0.935,0.928,1.689,1.658,2.301c2.172,1.821,4.631,2.394,7.38,1.652
			c0.452-0.122,0.917-0.247,1.379-0.259c0.835-0.021,1.409,0.47,1.616,1.271c0.201,0.788-0.085,1.58-0.853,1.921
			c-0.743,0.332-1.541,0.59-2.34,0.732c-4.826,0.872-9.763-1.471-11.976-5.877C0.033,14.044,3.671,6.235,11.125,4.923
			c3.739-0.657,7.053,0.298,9.85,2.921c0.672,0.631,1.009,1.386,0.66,2.308c-0.218,0.571-0.684,0.921-1.206,1.201
			c-3.902,2.088-7.804,4.178-11.707,6.267C7.975,18.021,7.229,18.425,6.451,18.845z M5.751,16.575
			c4.108-2.205,8.159-4.381,12.297-6.604c-0.376-0.276-0.665-0.521-0.982-0.717C13.729,7.187,7.927,7.966,5.95,13.306
			C5.566,14.341,5.423,15.4,5.751,16.575z"/>
		<path fill="#F2F2F2" d="M81.728,31.378c0.114-1.152,0.225-2.254,0.342-3.427c3.321,0,6.69,0,10.175,0
			c-0.216-0.296-0.352-0.508-0.509-0.7c-3.662-4.457-7.326-8.912-10.985-13.372c-0.223-0.269-0.436-0.56-0.581-0.873
			c-0.483-1.048,0.127-2.203,1.26-2.403c0.266-0.047,0.542-0.068,0.814-0.068c4.507,0.002,9.015,0.01,13.522,0.019
			c1.027,0.001,1.696,0.463,1.896,1.305c0.268,1.117-0.471,2.123-1.611,2.159c-0.883,0.027-1.767,0.011-2.651,0.012
			c-2.452,0.001-4.902,0-7.354,0c-0.162,0-0.323,0-0.595,0c0.554,0.681,1.039,1.279,1.526,1.875
			c3.308,4.038,6.616,8.074,9.92,12.112c0.221,0.271,0.444,0.551,0.603,0.861c0.635,1.254-0.094,2.484-1.491,2.492
			c-2.954,0.02-5.909,0.007-8.863,0.007c-1.659,0-3.317,0-4.978,0C82.003,31.378,81.839,31.378,81.728,31.378z"/>
		<path fill="#F2F2F2" d="M32.783,21.754c0-0.617-0.006-1.197,0.001-1.774c0.009-0.717,0.301-1.133,0.992-1.283
			c0.408-0.087,0.851-0.114,1.263-0.051c0.855,0.129,1.184,0.57,1.188,1.446c0.002,0.503,0,1.007,0,1.573
			c0.875-0.187,1.563-0.605,2.133-1.212c0.973-1.038,1.3-2.329,1.306-3.709c0.012-3.61,0.002-7.219,0.005-10.829
			c0.001-0.935,0.373-1.497,1.13-1.731c0.879-0.272,1.76,0.287,1.886,1.207c0.026,0.195,0.029,0.396,0.029,0.594
			c0.002,3.595,0.008,7.188-0.001,10.783c-0.006,2.324-0.669,4.394-2.381,6.043c-1.037,0.999-2.281,1.615-3.667,1.939
			c-0.354,0.084-0.45,0.227-0.446,0.579c0.019,1.838,0.009,3.674,0.007,5.506c0,0.936-0.396,1.376-1.327,1.454
			c-0.287,0.028-0.579,0.03-0.865,0c-0.827-0.089-1.249-0.563-1.25-1.396c-0.004-1.791-0.017-3.58,0.011-5.369
			c0.006-0.424-0.125-0.564-0.524-0.65c-3.688-0.819-6.283-4.076-6.291-7.861c-0.007-3.625-0.015-7.249-0.017-10.874
			c-0.001-0.271,0.021-0.55,0.076-0.817c0.162-0.785,0.71-1.214,1.493-1.195c0.753,0.017,1.319,0.515,1.435,1.281
			c0.036,0.241,0.038,0.487,0.038,0.731c0.003,2.203-0.006,4.405,0.005,6.607c0.006,1.513,0.025,3.027,0.06,4.539
			C29.121,19.453,30.77,21.461,32.783,21.754z"/>
		<path fill="#F2F2F2" d="M63.181,27.317c0.063,1.201,0.121,2.337,0.183,3.532c-0.134,0-0.298,0-0.459,0c-3.959,0-7.922,0-11.88,0
			c-0.059,0-0.121,0-0.183,0c-0.777-0.018-1.451-0.252-1.815-0.998c-0.374-0.764-0.092-1.429,0.395-2.029
			c0.999-1.232,2.009-2.457,3.016-3.685c2.74-3.341,5.482-6.677,8.223-10.018c0.143-0.175,0.273-0.362,0.482-0.642
			c-0.248,0-0.406,0-0.56,0c-3.198,0-6.396,0.002-9.596-0.002c-0.27,0-0.551-0.009-0.813-0.073c-0.887-0.218-1.295-0.847-1.24-1.862
			c0.042-0.783,0.59-1.361,1.422-1.482c0.239-0.035,0.484-0.055,0.725-0.056c4.524-0.008,9.048-0.013,13.569-0.013
			c0.762,0,1.411,0.231,1.773,0.975c0.362,0.75,0.203,1.424-0.305,2.042c-2.788,3.398-5.575,6.797-8.365,10.193
			c-1.103,1.347-2.202,2.691-3.368,4.116C57.371,27.317,60.277,27.317,63.181,27.317z"/>
		<path fill="#F2F2F2" d="M64.215,23.579c0-1.853-0.004-3.704,0.005-5.554c0.002-0.303,0.021-0.615,0.1-0.905
			c0.188-0.707,0.73-1.081,1.46-1.059c0.713,0.021,1.245,0.446,1.395,1.151c0.06,0.281,0.084,0.575,0.088,0.862
			c0.015,3.61,0.004,7.218,0.039,10.829c0.033,3.375,2.573,5.182,5.598,4.974c0.469-0.032,0.939-0.101,1.395-0.211
			c2.104-0.521,3.394-2.055,3.565-4.229c0.041-0.518,0.061-1.036,0.063-1.557c0.005-3.333,0-6.668,0.002-10.001
			c0.003-0.997,0.352-1.532,1.134-1.765c0.803-0.239,1.601,0.19,1.821,1.004c0.065,0.247,0.09,0.512,0.09,0.77
			c0.006,3.61,0.028,7.221-0.006,10.828c-0.026,2.93-1.057,5.382-3.634,6.979c-2.642,1.636-7.052,1.992-9.9-0.309
			c-2.069-1.668-3.207-3.785-3.194-6.486c0.008-1.772,0-3.547,0-5.321C64.23,23.579,64.224,23.579,64.215,23.579z"/>
		<path fill="#F2F2F2" d="M23.23,29.419c1.712-1.156,3.327-2.246,4.938-3.34c0.486-0.332,0.982-0.624,1.6-0.554
			c0.808,0.092,1.436,0.631,1.622,1.401c0.191,0.788-0.083,1.428-0.729,1.88c-1.601,1.105-3.22,2.191-4.835,3.282
			c-0.984,0.663-1.971,1.328-2.963,1.979c-0.24,0.157-0.498,0.299-0.765,0.402c-1.298,0.503-2.432-0.273-2.439-1.675
			c-0.011-1.942-0.012-3.884-0.012-5.826c0.001-4.066,0.005-8.132,0.012-12.199c0.002-1.378,0.905-2.127,2.236-1.864
			c0.736,0.146,1.248,0.739,1.324,1.548c0.018,0.182,0.012,0.367,0.012,0.551c0,4.602,0,9.204,0,13.806
			C23.23,28.976,23.23,29.14,23.23,29.419z"/>
		<path fill="#F2F2F2" d="M47.663,20.992c0,2.751,0.002,5.502-0.001,8.253c0,0.259-0.017,0.522-0.065,0.774
			c-0.164,0.872-0.746,1.35-1.627,1.358c-0.937,0.01-1.501-0.423-1.695-1.324c-0.055-0.249-0.08-0.512-0.08-0.769
			c-0.004-5.534-0.004-11.067,0-16.601c0-0.272,0.03-0.55,0.085-0.817c0.171-0.823,0.788-1.311,1.629-1.314
			c0.852-0.004,1.475,0.462,1.661,1.277c0.065,0.279,0.09,0.575,0.09,0.862C47.666,15.459,47.663,18.225,47.663,20.992z"/>
		<path fill="#F2F2F2" d="M71.66,18.209c-0.017,0.613-0.453,1.037-1.054,1.018c-0.572-0.016-1.057-0.5-1.057-1.052
			c0.003-0.589,0.541-1.124,1.116-1.103C71.255,17.093,71.676,17.575,71.66,18.209z"/>
		<path fill="#F2F2F2" d="M75.035,17.072c0.556-0.004,1.077,0.516,1.086,1.085c0.011,0.559-0.515,1.073-1.092,1.071
			c-0.588-0.004-1.027-0.45-1.033-1.05C73.989,17.569,74.453,17.076,75.035,17.072z"/>
	</g>
</g>
</svg>
