<?xml version="1.0" encoding="utf-8"?>
<!-- Generator: Adobe Illustrator 16.0.3, SVG Export Plug-In . SVG Version: 6.00 Build 0)  -->
<!DOCTYPE svg PUBLIC "-//W3C//DTD SVG 1.1//EN" "http://www.w3.org/Graphics/SVG/1.1/DTD/svg11.dtd">
<svg version="1.1" id="Capa_1" xmlns="http://www.w3.org/2000/svg" xmlns:xlink="http://www.w3.org/1999/xlink" x="0px" y="0px"
	 width="260px" height="90px" viewBox="0 0 260 90" enable-background="new 0 0 260 90" xml:space="preserve">
<g>
	<path d="M116.477,69.733c0,0.306,0,0.535,0,0.824c-6.38,0-12.755,0-19.173,0c0-0.265,0-0.512,0-0.73
		c0.962-0.155,1.93-0.207,2.831-0.479c2.642-0.793,4.522-2.534,5.621-5.032c6.504-14.783,12.974-29.581,19.474-44.363
		c0.266-0.605,0.238-1.07-0.05-1.655c-1.506-3.062-3.03-6.12-5.462-8.571c-2.6-2.621-5.615-4.398-9.509-3.91
		c-1.334,0.168-2.651,0.463-4.06,0.714c-0.045-0.204-0.103-0.464-0.17-0.767c2.664-1.398,5.42-2.437,8.354-2.958
		c2.866-0.509,5.718-0.573,8.565,0.224c3.828,1.068,6.91,3.25,9.594,6.115c3.404,3.631,5.984,7.822,7.886,12.359
		c4.837,11.549,9.466,23.184,14.213,34.77c2.742,6.689,5.699,13.282,9.867,19.239c2.229,3.188,4.733,6.153,8.083,8.235
		c4.006,2.492,8.329,3.553,13.037,2.554c0.229-0.048,0.46-0.06,0.709-0.092c0.296,0.563,0.178,0.864-0.411,1.142
		c-4.472,2.109-9.147,3.066-14.083,2.479c-2.83-0.338-5.536-1.165-8.141-2.311c-6.174-2.714-10.896-7.152-14.814-12.535
		c-3.594-4.935-6.191-10.385-8.298-16.086c-0.685-1.851-1.385-3.692-2.052-5.549c-0.162-0.453-0.387-0.631-0.895-0.629
		c-6.654,0.018-13.31,0.016-19.964,0.006c-0.414-0.002-0.64,0.092-0.812,0.508c-1.519,3.668-3.075,7.321-4.603,10.988
		c-0.625,1.5-0.59,2.951,0.553,4.219c0.731,0.813,1.713,1.146,2.777,1.248C115.83,69.714,116.113,69.717,116.477,69.733z
		 M136.848,48.823c-2.882-7.668-5.738-15.273-8.639-22.996c-3.224,7.7-6.405,15.307-9.624,22.996
		C124.714,48.823,130.73,48.823,136.848,48.823z"/>
	<path d="M72.668,36.921c0.417-0.197,0.644-0.304,0.909-0.428c0.278,0.436,0.514,0.866,0.809,1.25
		c1.529,1.99,3.705,2.383,6.006,2.281c3.902-0.173,6.459-2.42,8.288-5.653c2.014-3.562,2.31-7.444,1.999-11.415
		c-0.205-2.619-0.829-5.133-2.248-7.381c-1.895-3.002-4.673-4.619-8.15-5.158c-2.489-0.385-4.92,0.023-7.36,0.392
		c-0.95,0.144-1.899,0.299-2.853,0.422c-0.408,0.053-0.621,0.214-0.57,0.646c0.016,0.128,0.002,0.259,0.002,0.39
		c0,17.053,0.008,34.107-0.01,51.16c-0.002,2.133,0.595,3.936,2.4,5.206c0.913,0.642,1.916,1.034,3.044,1.058
		c0.463,0.01,0.927,0.002,1.438,0.002c0.016,0.328,0.027,0.576,0.043,0.879c-9.102,0-18.159,0-27.262,0c0-0.278,0-0.527,0-0.869
		c0.385,0,0.769,0.009,1.15,0c3.134-0.078,5.497-2.36,5.682-5.49c0.013-0.208,0.012-0.416,0.012-0.624
		c0-15.649,0.002-31.3-0.002-46.949c0-1.601-0.291-3.111-1.529-4.27c-1.104-1.034-2.477-1.228-3.91-1.212
		c-0.44,0.004-0.879,0-1.361,0c-0.045-0.209-0.092-0.429-0.146-0.68c0.149-0.033,0.271-0.07,0.396-0.087
		c5.275-0.718,10.556-1.395,15.823-2.162c3.596-0.524,7.16-1.274,10.764-1.747c6.005-0.789,11.932-0.426,17.648,1.768
		c4.227,1.62,7.581,4.265,9.625,8.397c1.245,2.515,1.789,5.19,1.848,7.979c0.084,3.892-0.665,7.593-2.539,11.031
		c-1.908,3.503-4.728,6.02-8.359,7.631c-4.375,1.939-8.899,2.415-13.552,1.25c-2.634-0.661-4.996-1.861-6.502-4.229
		C73.547,39.286,73.181,38.078,72.668,36.921z"/>
	<path d="M186.533,41.562c-0.014,0.277-0.037,0.531-0.037,0.785c0,7.069,0.018,14.141-0.012,21.213
		c-0.008,2.568,1.027,4.521,3.348,5.588c1.023,0.473,2.25,0.506,3.482,0.758c0.013,0.096,0.053,0.348,0.101,0.66
		c-9.099,0-18.154,0-27.265,0c-0.018-0.262-0.032-0.51-0.053-0.808c0.654-0.045,1.273-0.05,1.885-0.135
		c2.795-0.384,4.832-2.604,5-5.433c0.018-0.311,0.011-0.621,0.011-0.935c0-16.117-0.044-32.235,0.036-48.353
		c0.019-3.364-2.452-6.43-6.287-6.321c-0.178,0.005-0.357-0.014-0.585-0.024c0-0.274,0-0.519,0-0.866c0.34,0,0.67,0,0.997,0
		c11.596-0.012,23.188-0.017,34.783-0.037c2.983-0.006,5.887-0.572,8.752-1.361c0.168-0.046,0.338-0.084,0.563-0.141
		c0,5.045,0,10.021,0,15.072c-0.256,0.014-0.497,0.027-0.748,0.04c-0.13-1.106-0.198-2.163-0.381-3.201
		c-0.67-3.817-3.728-6.161-7.291-6.343c-4.408-0.226-8.832-0.132-13.247-0.172c-0.984-0.008-1.968-0.001-3.021-0.001
		c0,8.726,0,17.392,0,26.175c0.229,0,0.476,0,0.723,0c8.215,0,16.43,0.007,24.645-0.002c3.918-0.004,6.818-2.127,7.811-5.777
		c0.232-0.861,0.215-1.79,0.316-2.731c0.23,0,0.479,0,0.777,0c0,6.882,0,13.755,0,20.669c-0.266,0-0.512,0-0.795,0
		c-0.076-0.811-0.072-1.621-0.236-2.396c-0.773-3.636-3.543-5.938-7.422-5.965c-8.447-0.06-16.896-0.019-25.345-0.017
		C186.889,41.503,186.736,41.536,186.533,41.562z"/>
</g>
</svg>
