<?xml version="1.0" encoding="utf-8"?>
<!-- Generator: Adobe Illustrator 16.0.3, SVG Export Plug-In . SVG Version: 6.00 Build 0)  -->
<!DOCTYPE svg PUBLIC "-//W3C//DTD SVG 1.1//EN" "http://www.w3.org/Graphics/SVG/1.1/DTD/svg11.dtd">
<svg version="1.1" id="Capa_1" xmlns="http://www.w3.org/2000/svg" xmlns:xlink="http://www.w3.org/1999/xlink" x="0px" y="0px"
	 width="84px" height="86px" viewBox="0 0 84 86" enable-background="new 0 0 84 86" xml:space="preserve">
<g>
	<path fill="#F2F2F2" d="M42.404,73.156c-9.75,0-19.497,0.004-29.245,0C6.101,73.152,2.148,69.205,2.148,62.172
		c-0.001-13.048-0.003-26.098,0-39.149c0.003-6.598,4.059-10.655,10.7-10.659c19.705-0.013,39.409-0.013,59.115,0
		c6.646,0.004,10.695,4.057,10.695,10.659c0.004,13.154,0.004,26.312,0,39.465c0,6.603-4.057,10.654-10.695,10.666
		C62.109,73.166,52.257,73.156,42.404,73.156z M15.41,31.575c0,12.948,0,25.547,0,38.182c18.044,0,35.98,0,53.914,0
		c0-12.714,0-25.329,0-38.109c-0.504,0.382-0.844,0.626-1.17,0.887c-8.031,6.471-16.079,12.927-24.088,19.438
		c-1.172,0.948-2.086,1.041-3.302,0.053c-5.346-4.387-10.749-8.702-16.134-13.04C21.625,36.567,18.62,34.155,15.41,31.575z
		 M72.712,69.729c3.794,0.14,6.656-2.567,6.679-6.429c0.073-13.676,0.055-27.353,0.008-41.027c-0.008-3.043-1.741-5.297-4.381-6.277
		c-1.052-0.395-1.832-0.233-2.716,0.486c-9.344,7.603-18.722,15.166-28.087,22.74c-1.699,1.377-1.954,1.377-3.635,0.014
		c-9.366-7.572-18.744-15.137-28.092-22.737c-0.869-0.703-1.642-0.908-2.71-0.503c-2.824,1.062-4.386,3.419-4.387,6.918
		C5.382,36.115,5.382,49.32,5.397,62.527c0,0.826,0.067,1.68,0.255,2.486c0.675,2.869,3.423,4.922,6.357,4.663
		c0-0.591,0-1.209,0-1.821c0-12.787,0-25.57,0.005-38.357c0-0.576-0.03-1.165,0.09-1.719c0.256-1.21,1.335-1.682,2.396-1.063
		c0.492,0.289,0.924,0.683,1.372,1.045C24.156,34.43,32.434,41.1,40.714,47.773c0.559,0.444,1.126,0.885,1.696,1.326
		c7.218-5.814,14.314-11.533,21.413-17.25c2.036-1.641,4.054-3.316,6.134-4.903c1.357-1.036,2.593-0.446,2.741,1.226
		c0.036,0.473,0.015,0.945,0.015,1.418c0,12.732,0,25.465,0,38.199C72.712,68.411,72.712,69.027,72.712,69.729z M42.385,36.519
		c8.521-6.89,16.958-13.711,25.662-20.75c-17.238,0-34.094,0-51.326,0C25.412,22.797,33.824,29.594,42.385,36.519z"/>
	<path fill="#F2F2F2" d="M47.089,54.936c0.468-0.604,0.761-1.16,1.209-1.521c3.653-2.961,7.341-5.883,11.013-8.819
		c0.879-0.707,1.818-1,2.604,0c0.766,0.979,0.322,1.84-0.575,2.553c-3.681,2.922-7.325,5.893-11.053,8.766
		c-0.513,0.393-1.421,0.477-2.099,0.375C47.809,56.23,47.525,55.504,47.089,54.936z"/>
	<path fill="#F2F2F2" d="M64.416,44.043c-0.408-0.61-1.025-1.172-1.174-1.836c-0.202-0.895,1.171-2.042,2.169-2.005
		c0.995,0.041,1.526,0.583,1.545,1.576C66.973,42.79,65.837,43.82,64.416,44.043z"/>
</g>
</svg>
