<?xml version="1.0" encoding="utf-8"?>
<!-- Generator: Adobe Illustrator 16.0.3, SVG Export Plug-In . SVG Version: 6.00 Build 0)  -->
<!DOCTYPE svg PUBLIC "-//W3C//DTD SVG 1.1//EN" "http://www.w3.org/Graphics/SVG/1.1/DTD/svg11.dtd">
<svg version="1.1" id="Capa_1" xmlns="http://www.w3.org/2000/svg" xmlns:xlink="http://www.w3.org/1999/xlink" x="0px" y="0px"
	 width="84px" height="86px" viewBox="0 0 84 86" enable-background="new 0 0 84 86" xml:space="preserve">
<g>
	<path fill="#F2F2F2" d="M43.589,80.527c-6.227-0.193-12.455-0.358-18.681-0.598c-1.826-0.068-3.663-0.238-5.46-0.55
		c-3.42-0.589-5.796-3.09-6.5-6.505c-0.689-3.344-0.911-6.729-0.977-10.119c-0.099-5.206-0.177-10.417,0.438-15.595
		c0.208-1.759,0.499-3.563,1.14-5.195c1.298-3.291,3.99-4.717,7.445-5.01c12.198-1.036,24.415-0.821,36.63-0.544
		c2.951,0.068,5.901,0.327,8.845,0.583c4.504,0.39,7.208,2.823,7.924,7.325c0.448,2.839,0.726,5.721,0.832,8.592
		c0.209,5.543,0.226,11.094-0.381,16.619c-0.212,1.908-0.428,3.851-1.332,5.597c-1.363,2.627-3.531,4.149-6.488,4.381
		c-3.896,0.302-7.797,0.603-11.7,0.724c-3.905,0.123-7.817,0.026-11.729,0.026C43.591,80.348,43.59,80.439,43.589,80.527z
		 M48.752,69.529c0.648,0.547,1.146,1.063,1.734,1.445c2.177,1.416,4.773,0.801,5.35-2.054c0.114-0.571,0.221-1.157,0.229-1.737
		c0.039-3.494,0.066-6.992,0.06-10.486c-0.003-1.17-0.056-2.35-0.203-3.51c-0.308-2.432-2.096-3.713-4.276-2.987
		c-0.82,0.272-1.522,0.917-2.267,1.411c-0.201,0.135-0.354,0.342-0.675,0.662c0-3.224,0-6.217,0-9.224c-1.288,0-2.499,0-3.752,0
		c0,9.462,0,18.884,0,28.326c1.277,0,2.507,0,3.802,0C48.752,70.754,48.752,70.184,48.752,69.529z M70.493,61.553
		c0-2.111,0.065-4.136-0.031-6.152c-0.039-0.854-0.282-1.758-0.667-2.521c-1.229-2.441-3.975-3.453-6.775-2.604
		c-2.34,0.709-3.791,2.738-3.834,5.558c-0.052,3.321-0.088,6.646,0.012,9.969c0.091,3.009,1.615,5.618,5.436,5.901
		c2.178,0.161,4.215-0.876,5.258-2.768c0.836-1.519,0.678-3.147,0.705-4.781c-1.342,0-2.615,0-3.963,0
		c0,0.769,0.04,1.477-0.008,2.18c-0.085,1.165-0.701,1.822-1.676,1.873c-0.971,0.055-1.771-0.545-1.85-1.68
		c-0.113-1.62-0.027-3.256-0.027-4.976C65.54,61.553,68.041,61.553,70.493,61.553z M37.751,50.302c0,0.298,0,0.56,0,0.823
		c0,4.742-0.033,9.484,0.028,14.227c0.012,0.95-0.341,1.574-0.985,2.145c-0.506,0.445-1.066,0.882-1.766,0.636
		c-0.733-0.258-0.613-0.987-0.615-1.58c-0.017-5.134-0.018-10.268-0.024-15.399c0-0.282,0-0.564,0-0.844c-1.328,0-2.54,0-3.792,0
		c-0.012,0.207-0.028,0.375-0.028,0.541c0,5.451-0.01,10.902,0.014,16.354c0.004,0.873,0.123,1.755,0.27,2.617
		c0.175,1.02,0.838,1.613,1.858,1.807c1.71,0.324,2.95-0.566,4.135-1.592c0.28-0.242,0.529-0.52,0.933-0.92c0,0.906,0,1.578,0,2.262
		c1.293,0,2.523,0,3.749,0c0-7.055,0-14.059,0-21.072C40.258,50.302,39.045,50.302,37.751,50.302z M29.958,47.05
		c0-1.392,0-2.676,0-3.989c-4.45,0-8.855,0-13.282,0c0,1.335,0,2.619,0,4.015c1.505,0,2.976,0,4.501,0c0,8.165,0,16.22,0,24.306
		c1.438,0,2.813,0,4.266,0c0-8.123,0-16.194,0-24.331C26.977,47.05,28.434,47.05,29.958,47.05z"/>
	<path fill="#F2F2F2" d="M30.119,33.899c-1.458,0-2.816,0-4.271,0c0-0.293,0-0.553,0-0.813c0-2.666-0.084-5.333,0.025-7.994
		c0.099-2.418-0.384-4.709-1.123-6.966c-1.298-3.963-2.641-7.912-3.963-11.867c-0.1-0.298-0.188-0.599-0.296-0.944
		c1.512,0,2.969,0,4.471,0c0.995,3.668,1.99,7.335,2.985,11.002c0.04,0.003,0.08,0.007,0.12,0.012
		c0.388-1.474,0.778-2.946,1.164-4.419c0.531-2.029,1.067-4.058,1.58-6.091c0.088-0.352,0.181-0.556,0.607-0.547
		c1.246,0.027,2.49,0.01,3.813,0.01c-0.062,0.267-0.102,0.492-0.168,0.71c-1.568,5.182-3.146,10.362-4.7,15.549
		c-0.15,0.504-0.228,1.05-0.231,1.577c-0.021,3.3-0.011,6.601-0.011,9.901C30.119,33.285,30.119,33.55,30.119,33.899z"/>
	<path fill="#F2F2F2" d="M49.938,12.635c1.314,0,2.528,0,3.842,0c0,0.312,0,0.594,0,0.878c0,4.764-0.002,9.529,0.002,14.293
		c0.002,0.611,0.021,1.221,0.066,1.83c0.073,0.956,0.611,1.298,1.5,0.981c1.066-0.38,1.881-1.537,1.881-2.676
		c0-4.789,0-9.578,0-14.367c0-0.29,0-0.579,0-0.919c1.283,0,2.518,0,3.799,0c0,7.069,0,14.137,0,21.242c-1.25,0-2.461,0-3.772,0
		c0-0.693,0-1.381,0-2.069c-0.058-0.026-0.112-0.052-0.17-0.079c-0.267,0.265-0.519,0.544-0.8,0.792
		c-1.1,0.968-2.26,1.792-3.844,1.659c-1.209-0.103-2.028-0.765-2.213-1.952c-0.151-0.961-0.272-1.938-0.276-2.909
		c-0.025-5.375-0.015-10.751-0.015-16.126C49.938,13.044,49.938,12.876,49.938,12.635z"/>
	<path fill="#F2F2F2" d="M46.813,23.413c-0.086,1.966-0.063,4.001-0.293,6.008c-0.246,2.162-1.367,3.851-3.547,4.495
		c-2.149,0.635-4.222,0.432-5.917-1.255c-1.115-1.112-1.601-2.541-1.631-4.051c-0.071-3.54-0.101-7.085,0.002-10.624
		c0.082-2.794,1.622-4.838,3.924-5.406c3.56-0.877,6.723,0.803,7.184,4.704C46.771,19.288,46.729,21.327,46.813,23.413z
		 M39.231,23.263c-0.012,0-0.024,0-0.037,0c0,1.416-0.031,2.832,0.014,4.247c0.022,0.723,0.113,1.459,0.302,2.154
		c0.201,0.742,0.809,1.079,1.571,1.065c0.735-0.013,1.286-0.376,1.496-1.075c0.173-0.577,0.288-1.194,0.292-1.794
		c0.029-3.05,0.035-6.101-0.003-9.152c-0.009-0.668-0.163-1.355-0.376-1.991c-0.203-0.602-0.736-0.87-1.388-0.888
		c-0.675-0.018-1.228,0.22-1.495,0.838c-0.199,0.459-0.345,0.977-0.357,1.473C39.205,19.846,39.231,21.555,39.231,23.263z"/>
	<path fill="#F2F2F2" d="M48.743,60.881c0-1.953,0-3.902,0.001-5.855c0.001-0.735,0.453-1.234,1.324-1.467
		c0.826-0.221,1.508-0.012,1.805,0.688c0.225,0.525,0.377,1.123,0.383,1.689c0.036,3.27,0.02,6.539,0.018,9.808
		c0,0.241-0.034,0.485-0.073,0.728c-0.115,0.723-0.32,1.41-1.11,1.659c-0.813,0.256-1.49-0.103-2.063-0.631
		c-0.178-0.166-0.27-0.503-0.271-0.765C48.732,64.783,48.743,62.832,48.743,60.881z"/>
	<path fill="#F2F2F2" d="M66.832,58.324c-1.37,0-2.559,0-3.835,0c-0.04-1.271-0.187-2.531,0.249-3.746
		c0.291-0.809,0.913-1.146,1.783-1.08c0.822,0.063,1.41,0.533,1.554,1.486C66.748,56.059,66.751,57.154,66.832,58.324z"/>
</g>
</svg>
