<?xml version="1.0" encoding="utf-8"?>
<!-- Generator: Adobe Illustrator 16.0.3, SVG Export Plug-In . SVG Version: 6.00 Build 0)  -->
<!DOCTYPE svg PUBLIC "-//W3C//DTD SVG 1.1//EN" "http://www.w3.org/Graphics/SVG/1.1/DTD/svg11.dtd">
<svg version="1.1" id="Capa_1" xmlns="http://www.w3.org/2000/svg" xmlns:xlink="http://www.w3.org/1999/xlink" x="0px" y="0px"
	 width="100px" height="100px" viewBox="0 0 100 100" enable-background="new 0 0 100 100" xml:space="preserve">
<g>
	<path fill="#F2F2F2" d="M21.957,79.703c0.333-1.171,0.677-2.337,0.99-3.512c3.334-12.489,6.665-24.981,9.995-37.467
		c0.216-0.822,0.28-0.875,1.021-0.878c3.319,0,6.638,0,9.961,0.003c0.718,0,0.77,0.046,0.984,0.845
		c3.667,13.538,7.333,27.076,10.999,40.613c0.044,0.168,0.103,0.329,0.132,0.499c0.073,0.411-0.102,0.684-0.461,0.735
		c-0.104,0.012-0.211,0.007-0.319,0.007c-2.741,0-5.481-0.013-8.224,0.012c-0.498,0.004-0.735-0.193-0.874-0.745
		c-0.804-3.142-1.644-6.271-2.454-9.41c-0.102-0.402-0.252-0.535-0.628-0.533c-2.895,0.021-5.79,0.019-8.684,0.005
		c-0.344-0.004-0.492,0.098-0.589,0.506c-0.735,3.125-1.501,6.245-2.257,9.366c-0.178,0.739-0.247,0.8-0.914,0.8
		c-2.621,0-5.241,0.011-7.86-0.014c-0.274-0.004-0.545-0.201-0.819-0.31C21.957,80.051,21.957,79.877,21.957,79.703z M38.634,48.015
		c-1.038,4.464-2.108,9.057-3.186,13.669c2.204,0,4.392,0,6.592,0C40.893,57.069,39.75,52.479,38.634,48.015z"/>
	<path fill="#F2F2F2" d="M68.766,42.221c-0.217,0.867-0.443,1.722-0.946,2.453c-1.977,2.845-6.895,2.94-8.357-1.089
		c-1.101-3.042,0.139-7.113,4.009-7.423c2.25-0.181,4.077,1.006,4.864,3.069c0.188,0.487,0.291,1.015,0.432,1.523
		C68.766,41.245,68.766,41.732,68.766,42.221z"/>
	<path fill="#F2F2F2" d="M68.494,64.914c0,4.885,0,9.769,0,14.653c0,0.874-0.096,0.981-0.873,0.981c-2.502,0-4.996,0.001-7.494,0
		c-0.711-0.001-0.818-0.12-0.818-0.941c0-9.802,0-19.607,0-29.412c0-0.792,0.138-0.945,0.831-0.946c2.511,0,5.024,0,7.537,0
		c0.683,0.001,0.817,0.161,0.817,0.96C68.494,55.109,68.494,60.012,68.494,64.914z"/>
</g>
<g>
	<path fill="#F2F2F2" d="M29.466,1.849c-0.757,0.588-1.587,1.104-2.263,1.775C21.607,9.18,16.049,14.776,10.453,20.332
		c-0.932,0.926-1.386,1.932-1.368,3.258C9.131,27.358,9.1,31.126,9.1,34.967c1.997,0,3.954,0,6.017,0c0-2.953,0-5.917,0-8.98
		c0.439,0,0.775,0,1.109,0c3.518,0,7.039,0.011,10.559,0c3.898-0.016,6.434-2.538,6.45-6.426c0.016-3.521,0.002-7.04,0.002-10.558
		c0-0.339,0-0.679,0-1.119c0.414,0,0.749,0,1.083,0c14.485,0,28.972,0,43.457,0c2.646,0,3.738,1.078,3.738,3.693
		c0,25.701,0,51.403,0,77.106c0,2.576-1.098,3.685-3.651,3.685c-6.441,0.002-12.881,0.002-19.322,0.002c-0.343,0-0.684,0-1.163,0
		c0,2.042,0,4.039,0,6.033c7.354,0,14.707,0,22.063,0c0.11-0.047,0.222-0.117,0.34-0.137c2.33-0.325,4.209-1.434,5.72-3.229
		c1.163-1.383,1.676-3.026,2.048-4.745c0-26.774,0-53.556,0-80.334C87.5,9.811,87.422,9.67,87.402,9.521
		c-0.346-2.257-1.424-4.086-3.15-5.566c-1.396-1.199-3.063-1.73-4.81-2.107C62.784,1.849,46.124,1.849,29.466,1.849z"/>
</g>
</svg>
