<?xml version="1.0" encoding="utf-8"?>
<!-- Generator: Adobe Illustrator 16.0.3, SVG Export Plug-In . SVG Version: 6.00 Build 0)  -->
<!DOCTYPE svg PUBLIC "-//W3C//DTD SVG 1.1//EN" "http://www.w3.org/Graphics/SVG/1.1/DTD/svg11.dtd">
<svg version="1.1" id="Capa_1" xmlns="http://www.w3.org/2000/svg" xmlns:xlink="http://www.w3.org/1999/xlink" x="0px" y="0px"
	 width="100px" height="100px" viewBox="0 0 100 100" enable-background="new 0 0 100 100" xml:space="preserve">
<g>
	<path fill-rule="evenodd" clip-rule="evenodd" fill="#F2F2F2" d="M53.887,46.153c1.168-0.264,2.412-0.478,3.622-0.826
		c5.41-1.557,8.444-5.306,9.038-11.063c0.257-2.484,0.368-4.969-0.6-7.316c-0.468-1.136-1.225-2.142-1.813-3.23
		c-0.144-0.267-0.245-0.651-0.175-0.93c0.585-2.339,0.464-4.627-0.308-6.902c-0.157-0.466-0.396-0.628-0.864-0.621
		c-1.577,0.022-2.992,0.613-4.365,1.322c-0.847,0.437-1.635,0.993-2.479,1.438c-0.297,0.157-0.704,0.263-1.014,0.186
		c-4.499-1.126-8.982-1.129-13.477,0.028c-0.279,0.072-0.668-0.047-0.928-0.21c-1.783-1.125-3.607-2.152-5.673-2.627
		c-0.052-0.011-0.102-0.03-0.153-0.041c-1.543-0.313-1.739-0.181-2.16,1.373c-0.546,2.012-0.593,4.019-0.046,6.043
		c0.071,0.262,0.016,0.671-0.145,0.874c-2.356,2.958-2.954,6.4-2.483,10.064c0.214,1.68,0.575,3.393,1.193,4.958
		c1.532,3.881,4.651,5.838,8.44,6.82c1.015,0.264,2.054,0.432,2.928,0.613c-0.443,1.201-0.882,2.425-1.358,3.632
		c-0.075,0.19-0.3,0.368-0.497,0.454c-3.106,1.346-6.013,0.379-7.81-2.575c-0.729-1.197-1.612-2.273-2.927-2.755
		c-0.718-0.263-1.541-0.321-2.311-0.297c-0.678,0.021-0.827,0.53-0.394,1.078c0.181,0.229,0.398,0.454,0.644,0.597
		c1.583,0.918,2.583,2.403,3.174,4.055c1.147,3.194,3.519,4.225,6.499,4.313c1.099,0.033,2.203-0.137,3.45-0.228
		c0,0.33,0,0.67,0,1.01c0.003,1.334-0.004,2.666,0.012,4c0.019,1.518-0.768,2.137-2.186,1.641c-2.642-0.921-5.102-2.225-7.355-3.914
		c-6.285-4.713-10.311-10.993-11.589-18.891c-1.785-11.015,1.407-20.41,9.509-27.856c5.334-4.901,11.732-7.3,18.853-7.261
		c8.625,0.047,15.919,3.419,21.674,10.102c4.668,5.42,7.075,11.829,7.203,19.057c0.142,8.058-2.504,15.086-7.824,21.017
		c-3.066,3.419-6.756,5.88-10.956,7.553c-0.244,0.099-0.491,0.201-0.743,0.271c-1.242,0.347-2.044-0.246-2.05-1.578
		c-0.009-2.206,0.084-4.412,0.031-6.615c-0.031-1.404-0.138-2.826-0.423-4.194C54.865,47.827,54.294,47.018,53.887,46.153z"/>
	<path fill-rule="evenodd" clip-rule="evenodd" fill="#F2F2F2" d="M20.958,84.314c0,1.959,0.024,3.92-0.021,5.877
		c-0.008,0.336-0.22,0.84-0.481,0.979c-4.104,2.167-8.351,2.345-12.612,0.612c-2.749-1.119-4.312-3.423-5.042-6.307
		c-1.123-4.426-1.05-8.837,0.452-13.16c1.237-3.558,3.759-5.572,7.366-6.078c2.822-0.396,5.624-0.26,8.365,0.657
		c0.733,0.246,1.12,0.563,0.82,1.464c-0.298,0.893-0.467,1.84-0.642,2.773c-0.115,0.622-0.348,0.806-0.973,0.615
		c-1.917-0.6-3.881-0.73-5.869-0.458c-2.153,0.297-3.603,1.543-4.251,3.637c-0.973,3.144-0.969,6.336,0.065,9.465
		c0.853,2.578,2.766,3.622,5.887,3.394c1.662-0.126,1.667-0.126,1.692-1.844c0.015-0.952-0.014-1.904,0.019-2.857
		c0.018-0.516-0.121-0.747-0.662-0.724c-0.711,0.035-1.424-0.023-2.136,0c-0.526,0.021-0.778-0.141-0.762-0.737
		c0.03-1.112,0.026-2.231,0.004-3.343c-0.013-0.544,0.217-0.702,0.713-0.699c2.428,0.011,4.853,0.014,7.278-0.013
		c0.626-0.007,0.824,0.246,0.813,0.87c-0.027,1.958-0.008,3.918-0.008,5.877C20.97,84.314,20.965,84.314,20.958,84.314z"/>
	<path fill-rule="evenodd" clip-rule="evenodd" fill="#F2F2F2" d="M49.944,81.44c0,1.899,0.001,3.718-0.001,5.53
		c0,1.553-0.023,3.104,0,4.652c0.01,0.625-0.25,0.793-0.813,0.778c-1.186-0.028-2.376-0.033-3.561,0.011
		c-0.646,0.023-0.886-0.188-0.883-0.878c0.019-4.028,0-8.054,0-12.083c0-3.836,0.023-7.674-0.002-11.51
		c-0.004-0.711,0.192-0.966,0.896-0.938c1.211,0.051,2.427,0.044,3.64,0.018c0.553-0.014,0.732,0.186,0.727,0.755
		c-0.024,2.613,0.011,5.225-0.025,7.837c-0.01,0.704,0.154,0.942,0.876,0.918c1.845-0.057,3.693-0.047,5.54-0.015
		c0.619,0.013,0.824-0.176,0.817-0.831c-0.031-2.582,0.007-5.169-0.027-7.753c-0.011-0.722,0.214-0.959,0.906-0.931
		c1.187,0.053,2.375,0.048,3.562,0.02c0.578-0.016,0.777,0.174,0.777,0.793c-0.02,6.014-0.01,12.025-0.01,18.04
		c0,1.876-0.027,3.756,0.012,5.633c0.016,0.732-0.242,0.946-0.921,0.917c-1.159-0.044-2.324-0.04-3.483,0.012
		c-0.686,0.029-0.852-0.263-0.844-0.91c0.026-3.049,0.001-6.097,0.035-9.146c0.01-0.706-0.178-0.949-0.887-0.934
		C54.219,81.473,52.163,81.44,49.944,81.44z"/>
	<path fill-rule="evenodd" clip-rule="evenodd" fill="#F2F2F2" d="M87.809,75.653c0.815-0.289,1.518-0.674,2.256-0.766
		c1.214-0.149,2.48-0.299,3.675-0.109c2.579,0.411,3.872,2.327,4.373,4.777c0.648,3.156,0.582,6.331-0.401,9.426
		c-0.795,2.498-2.635,3.817-5.182,3.893c-2.123,0.069-4.074-0.449-5.814-1.683c-0.07,0.045-0.149,0.071-0.152,0.099
		c-0.043,1.013-0.61,1.234-1.48,1.12c-0.519-0.067-1.058-0.052-1.579,0c-0.756,0.076-1.012-0.202-1.009-1.004
		c0.027-6.315,0.018-12.627,0.021-18.941c0-1.551,0.018-3.101-0.017-4.65c-0.011-0.615,0.208-0.821,0.783-0.807
		c1.24,0.03,2.479,0.042,3.719,0.012c0.592-0.014,0.769,0.203,0.763,0.806c-0.023,2.423-0.002,4.842,0.004,7.265
		C87.768,75.249,87.791,75.407,87.809,75.653z M87.69,83.759c-0.001,0-0.002,0-0.005,0c0,0.685,0.005,1.361,0,2.04
		c-0.019,2.188,0.11,2.341,2.227,2.642c0.231,0.031,0.473,0.047,0.709,0.045c1.482-0.003,2.265-0.569,2.456-2.082
		c0.174-1.392,0.235-2.819,0.147-4.22c-0.169-2.795-1.781-3.827-4.356-2.928c-0.199,0.071-0.39,0.176-0.589,0.242
		c-0.433,0.148-0.609,0.432-0.599,0.917C87.709,81.53,87.69,82.646,87.69,83.759z"/>
	<path fill-rule="evenodd" clip-rule="evenodd" fill="#F2F2F2" d="M76.402,91.42c-1.483,0.479-2.829,1.121-4.232,1.314
		c-1.325,0.181-2.748,0.06-4.063-0.236c-2.066-0.458-3.285-2.234-3.34-4.684c-0.075-3.317-0.046-6.639-0.061-9.959
		c-0.002-0.652,0.013-1.305-0.013-1.959c-0.023-0.549,0.176-0.795,0.731-0.783c1.264,0.029,2.533,0.042,3.797,0.018
		c0.61-0.009,0.757,0.272,0.755,0.843c-0.014,3.238,0.046,6.479-0.021,9.717c-0.042,2.09,0.493,3.229,3.293,2.649
		c0.179-0.036,0.354-0.104,0.533-0.151c0.786-0.235,1.18-0.636,1.16-1.614c-0.072-3.484-0.009-6.97-0.044-10.453
		c-0.007-0.792,0.239-1.053,0.997-1.015c1.158,0.061,2.323,0.044,3.482,0.024c0.54-0.004,0.735,0.196,0.732,0.766
		c-0.013,5.253-0.013,10.507,0.003,15.757c0,0.583-0.207,0.78-0.747,0.745c-0.524-0.03-1.055-0.015-1.581,0.01
		C77.035,92.439,76.276,92.518,76.402,91.42z"/>
	<path fill-rule="evenodd" clip-rule="evenodd" fill="#F2F2F2" d="M33.398,79.566c-0.758,0-1.389-0.028-2.019,0.008
		c-0.564,0.03-0.75-0.228-0.725-0.772c0.028-0.599,0.084-1.208,0.002-1.795c-0.127-0.927,0.287-1.225,1.095-1.377
		c1.661-0.325,1.651-0.362,1.646-2.077c-0.003-0.922,0.016-1.849-0.007-2.772c-0.01-0.449,0.136-0.641,0.586-0.637
		c1.475,0.014,2.948,0.008,4.594,0.008c0,1.076-0.002,2.09,0,3.107c0,1.819,0.002,1.819,1.767,1.839
		c0.132,0,0.264,0.004,0.396,0.006c1.647,0.039,1.65,0.039,1.66,1.776c0.002,0.651-0.036,1.309,0,1.959
		c0.029,0.586-0.215,0.759-0.75,0.737c-0.816-0.03-1.637,0.019-2.451-0.016c-0.563-0.024-0.646,0.264-0.641,0.75
		c0.02,1.985,0.009,3.971,0.022,5.956c0.011,1.516,0.658,2.174,2.128,2.205c1.736,0.037,1.736,0.037,1.734,1.836
		c-0.003,2.188,0.003,2.275-2.125,2.46c-1.134,0.1-2.331-0.012-3.435-0.292c-2.01-0.509-3.166-2.012-3.31-4.094
		c-0.18-2.597-0.123-5.216-0.164-7.825C33.395,80.264,33.398,79.973,33.398,79.566z"/>
	<path fill-rule="evenodd" clip-rule="evenodd" fill="#F2F2F2" d="M28.854,83.655c0,2.587-0.022,5.171,0.016,7.756
		c0.01,0.762-0.251,1.014-0.965,0.99c-1.134-0.037-2.269-0.02-3.405-0.005c-0.626,0.01-0.907-0.261-0.906-0.925
		c0.009-5.198,0.009-10.399-0.001-15.599c-0.001-0.568,0.241-0.78,0.762-0.775c1.267,0.009,2.534,0.029,3.798,0.002
		c0.575-0.007,0.711,0.261,0.708,0.797C28.845,78.483,28.854,81.069,28.854,83.655z"/>
	<path fill-rule="evenodd" clip-rule="evenodd" fill="#F2F2F2" d="M29.186,70.591c0.007,1.654-1.292,3.024-2.879,3.03
		c-1.578,0.006-2.902-1.36-2.91-3.004c-0.008-1.631,1.33-3.044,2.885-3.052C27.855,67.559,29.178,68.936,29.186,70.591z"/>
</g>
</svg>
