<?xml version="1.0" encoding="utf-8"?>
<!-- Generator: Adobe Illustrator 16.0.3, SVG Export Plug-In . SVG Version: 6.00 Build 0)  -->
<!DOCTYPE svg PUBLIC "-//W3C//DTD SVG 1.1//EN" "http://www.w3.org/Graphics/SVG/1.1/DTD/svg11.dtd">
<svg version="1.1" id="Capa_1" xmlns="http://www.w3.org/2000/svg" xmlns:xlink="http://www.w3.org/1999/xlink" x="0px" y="0px"
	 width="130px" height="100px" viewBox="0 0 130 100" enable-background="new 0 0 130 100" xml:space="preserve">
<path fill-rule="evenodd" clip-rule="evenodd" fill="#F2F2F2" d="M59.347,51.186c-0.247,0.332-0.483,0.674-0.745,1
	c-0.966,1.199-2.172,1.953-3.757,1.998c-1.731,0.051-2.879-0.834-3.663-2.287c-0.194-0.359-0.316-0.756-0.484-1.129
	c-0.072-0.164-0.177-0.316-0.338-0.602c-0.176,0.318-0.307,0.518-0.402,0.734c-0.421,0.951-1.007,1.779-1.768,2.494
	c-1.38,1.297-3.375,0.891-4.384-0.342c-0.64-0.779-0.998-1.688-1.23-2.652c-0.113-0.467-0.158-0.953-0.254-1.427
	c-0.029-0.143-0.122-0.271-0.186-0.404c-0.12,0.09-0.282,0.157-0.353,0.278c-0.366,0.618-0.674,1.272-1.063,1.875
	c-1.956,3.039-4.747,4.043-8.221,3.295c-0.539-0.115-1.084-0.295-1.569-0.555c-0.685-0.365-0.88-0.691-0.518-1.379
	c0.096-0.182,0.163-0.379,0.27-0.551c0.57-0.924,1.003-0.986,1.895-0.377c0.455,0.311,0.952,0.574,1.461,0.779
	c1.023,0.41,2.012-0.453,2.179-1.449c0.208-1.24-0.194-2.308-1.011-3.202c-0.681-0.746-1.447-1.417-2.185-2.11
	c-0.305-0.288-0.521-0.129-0.7,0.173c-0.953,1.603-1.902,3.208-2.87,4.801c-0.743,1.223-1.565,2.385-2.716,3.268
	c-0.58,0.443-1.2,0.785-1.97,0.77c-0.753-0.014-1.289-0.342-1.622-1.01c-0.478-0.961-0.609-2.008-0.621-3.045
	c-0.021-1.908,0.064-3.816,0.114-5.725c0.026-0.983,0.082-1.967,0.097-2.95c0.002-0.161-0.107-0.418-0.222-0.455
	c-0.129-0.042-0.367,0.073-0.481,0.192c-0.969,1.025-1.666,2.232-2.268,3.496c-0.919,1.93-1.571,3.955-2.048,6.032
	c-0.224,0.984-0.383,1.984-0.613,2.967c-0.042,0.18-0.275,0.428-0.438,0.441c-0.535,0.043-1.09,0.057-1.613-0.045
	c-0.55-0.104-0.797-0.594-0.872-1.107c-0.104-0.711-0.185-1.43-0.199-2.146c-0.023-1.129,0.02-2.26,0.028-3.393
	c0.015-2.188,0.021-4.377,0.039-6.565c0.006-0.662,0.044-1.321,0.054-1.982c0.006-0.352,0.186-0.562,0.514-0.498
	c0.683,0.138,1.367,0.301,2.021,0.536c0.16,0.058,0.288,0.429,0.291,0.658c0.017,1.733-0.002,3.467-0.008,5.202
	c-0.002,0.395-0.007,0.793,0.003,1.189c0.005,0.151,0.047,0.302,0.073,0.452c0.058,0.014,0.116,0.029,0.175,0.043
	c0.162-0.386,0.341-0.767,0.486-1.161c0.665-1.802,1.303-3.616,2.47-5.177c0.471-0.631,1.013-1.182,1.741-1.52
	c0.679-0.314,1.367-0.342,2.041-0.012c0.433,0.214,0.855,0.454,1.259,0.717c0.529,0.347,0.786,0.848,0.76,1.494
	c-0.078,1.982-0.163,3.962-0.214,5.943c-0.025,1.014-0.001,2.029,0.037,3.042c0.013,0.346,0.113,0.695,0.222,1.025
	c0.142,0.432,0.591,0.592,0.91,0.27c0.553-0.559,1.11-1.143,1.521-1.805c1.003-1.621,1.918-3.297,2.882-4.943
	c0.222-0.379,0.198-0.669-0.067-1.036c-0.824-1.141-0.758-2.455,0.131-3.767c0.749-1.104,2.142-1.684,3.377-1.407
	c0.646,0.146,0.901,0.479,0.931,1.138c0.048,1.04-0.529,1.834-1.012,2.667c-0.103,0.178-0.233,0.339-0.356,0.502
	c-0.378,0.502-0.375,0.534,0.112,0.9c0.961,0.725,1.935,1.434,2.879,2.181c0.938,0.741,1.715,1.616,1.952,2.835
	c0.083,0.428,0.054,0.875,0.098,1.31c0.013,0.133,0.094,0.256,0.143,0.383c0.11-0.059,0.246-0.098,0.326-0.184
	c1.375-1.499,2.364-3.162,2.352-5.289c-0.013-2.174,0.02-4.349,0.029-6.523c0.003-0.623-0.091-0.714-0.71-0.729
	c-0.911-0.021-1.822-0.054-2.733-0.053c-0.416,0-0.603-0.162-0.568-0.577c0.021-0.249-0.003-0.509,0.062-0.743
	c0.246-0.891,0.485-1.037,1.419-0.966c0.688,0.053,1.377,0.103,2.066,0.127c0.543,0.02,0.671-0.115,0.695-0.667
	c0.052-1.175,0.083-2.349,0.148-3.523c0.043-0.805,0.323-1.023,1.107-0.858c0.6,0.126,1.19,0.307,1.782,0.473
	c0.405,0.113,0.602,0.366,0.573,0.812c-0.07,1.055-0.121,2.112-0.165,3.168c-0.024,0.585,0.104,0.737,0.694,0.772
	c0.909,0.053,1.82,0.065,2.73,0.11c0.351,0.017,0.699,0.084,1.05,0.118c0.339,0.032,0.493,0.199,0.472,0.549
	c-0.069,1.135-0.41,1.349-1.263,1.339c-1.058-0.012-2.115,0.038-3.173,0.05c-0.426,0.004-0.581,0.196-0.59,0.624
	c-0.072,3.04-0.183,6.078-0.243,9.12c-0.025,1.273-0.004,2.554,0.474,3.773c0.297,0.756,0.814,1.119,1.424,0.898
	c0.306-0.109,0.603-0.318,0.83-0.555c0.958-0.992,1.607-2.166,1.831-3.535c0.12-0.733,0.12-1.487,0.201-2.228
	c0.228-2.078,0.664-4.083,2.012-5.771c1.069-1.336,2.402-1.996,4.139-1.611c0.665,0.148,1.227,0.484,1.693,0.975
	c0.179,0.189,0.328,0.41,0.49,0.616c0.052-0.025,0.106-0.05,0.159-0.075c0.041-0.125,0.098-0.247,0.119-0.375
	c0.07-0.442,0.31-0.754,0.743-0.697c0.688,0.089,1.368,0.278,2.034,0.478c0.337,0.102,0.396,0.426,0.386,0.764
	c-0.063,2.262-0.175,4.523-0.156,6.784c0.011,1.461,0.182,2.923,0.348,4.378c0.066,0.572,0.346,1.105,0.961,1.326
	c0.559,0.201,1.059,0.064,1.431-0.389c0.72-0.879,1.095-1.83,0.966-3.037c-0.316-2.957-0.039-5.848,1.504-8.485
	c0.69-1.181,1.621-2.09,3.049-2.319c1.229-0.197,2.295,0.143,3.189,1.011c0.116,0.112,0.223,0.236,0.344,0.341
	c0.292,0.25,0.468,0.189,0.543-0.182c0.104-0.515,0.36-0.75,0.881-0.683c0.536,0.07,1.069,0.194,1.586,0.35
	c0.412,0.124,0.628,0.405,0.617,0.891c-0.068,3.173-0.116,6.346-0.155,9.52c-0.003,0.236,0.114,0.477,0.177,0.713
	c0.189-0.162,0.426-0.291,0.563-0.488c1.296-1.871,2.248-3.911,2.989-6.056c0.082-0.233,0.152-0.473,0.215-0.711
	c0.114-0.44,0.131-0.808-0.278-1.184c-0.687-0.631-0.756-1.822-0.27-2.743c0.466-0.879,1.276-1.305,2.263-1.19
	c0.746,0.09,1.163,0.528,1.193,1.28c0.009,0.22-0.015,0.44-0.031,0.66c-0.031,0.397,0.09,0.533,0.465,0.47
	c0.839-0.142,1.67-0.321,2.512-0.438c0.491-0.067,1-0.091,1.491-0.04c0.723,0.074,1.262,0.913,1.106,1.691
	c-0.223,1.121-0.517,2.226-0.717,3.349c-0.34,1.905-0.511,3.829-0.018,5.727c0.154,0.588,0.466,1.186,0.863,1.645
	c0.532,0.617,1.394,0.492,1.959-0.168c0.682-0.797,0.923-1.725,0.719-2.748c-0.331-1.658-0.197-3.319,0.07-4.954
	c0.305-1.862,0.978-3.6,2.36-4.962c1.617-1.595,3.921-1.544,5.491,0.091c0.113,0.117,0.27,0.193,0.406,0.289
	c0.082-0.146,0.198-0.283,0.238-0.439c0.096-0.401,0.376-0.604,0.735-0.554c0.634,0.091,1.264,0.238,1.878,0.419
	c0.429,0.129,0.498,0.507,0.493,0.929c-0.042,3.069-0.097,6.14-0.075,9.211c0.005,0.805,0.191,1.633,0.434,2.406
	c0.299,0.959,1.365,1.152,2.079,0.441c0.652-0.65,1.045-1.467,1.275-2.334c0.194-0.728,0.324-1.493,0.343-2.245
	c0.065-2.762,0.072-5.523,0.105-8.286c0.009-0.664,0.171-0.831,0.826-0.741c0.551,0.073,1.096,0.216,1.633,0.358
	c0.455,0.12,0.536,0.499,0.536,0.904c-0.002,1.44-0.01,2.881-0.007,4.32c0.001,0.206,0.048,0.409,0.072,0.614
	c0.05,0.007,0.1,0.015,0.148,0.021c0.068-0.111,0.157-0.215,0.199-0.336c0.364-1.05,0.695-2.113,1.085-3.153
	c0.271-0.725,0.595-1.431,0.931-2.128c0.215-0.442,0.584-0.656,1.11-0.636c0.685,0.025,1.304,0.229,1.862,0.597
	c0.547,0.36,0.738,0.918,0.758,1.559c0.049,1.585,0.103,3.172,0.174,4.757c0.023,0.497,0.09,0.996,0.167,1.487
	c0.018,0.116,0.156,0.212,0.24,0.316c0.071-0.112,0.188-0.216,0.209-0.339c0.441-2.547,1.238-4.986,2.214-7.371
	c0.38-0.929,0.881-1.183,1.852-0.901c0.545,0.159,1.077,0.389,1.583,0.651c0.591,0.305,0.891,0.81,0.872,1.507
	c-0.066,2.437-0.155,4.874-0.15,7.311c0.002,1.121,0.13,2.255,0.598,3.31c0.084,0.184,0.177,0.373,0.3,0.531
	c0.561,0.732,1.391,0.75,1.838-0.049c0.374-0.664,0.571-1.43,0.838-2.156c0.091-0.246,0.13-0.518,0.253-0.747
	c0.069-0.128,0.256-0.261,0.393-0.265c0.107-0.002,0.257,0.172,0.32,0.303c0.069,0.136,0.093,0.316,0.078,0.47
	c-0.105,1.195-0.358,2.35-0.961,3.404c-1.117,1.949-3.4,1.709-4.626,0.607c-0.955-0.859-1.391-1.99-1.575-3.215
	c-0.361-2.417-0.413-4.852-0.298-7.292c0.012-0.231-0.121-0.468-0.188-0.703c-0.145,0.179-0.337,0.337-0.426,0.542
	c-0.721,1.659-1.35,3.352-1.634,5.143c-0.233,1.475-0.392,2.961-0.567,4.446c-0.042,0.354-0.188,0.559-0.54,0.652
	c-1.378,0.363-2.491-0.463-2.783-2.008c-0.49-2.591-0.647-5.208-0.742-7.835c-0.01-0.282-0.166-0.557-0.253-0.833
	c-0.203,0.205-0.497,0.374-0.596,0.62c-0.486,1.207-0.953,2.421-1.367,3.653c-0.656,1.962-0.695,4.004-0.709,6.047
	c-0.002,0.293-0.053,0.584-0.08,0.879c-0.044,0.477-0.314,0.721-0.784,0.705c-0.655-0.025-1.316-0.037-1.962-0.141
	c-0.547-0.084-0.733-0.363-0.785-0.908c-0.023-0.248-0.02-0.502-0.065-0.746c-0.023-0.125-0.128-0.236-0.196-0.354
	c-0.1,0.072-0.225,0.125-0.296,0.219c-0.319,0.418-0.576,0.895-0.943,1.264c-1.169,1.17-3.351,0.813-4.332-0.414
	c-0.339-0.424-0.521-0.969-0.787-1.451c-0.079-0.146-0.199-0.268-0.301-0.4c-0.095,0.098-0.215,0.18-0.286,0.293
	c-0.79,1.248-1.827,2.182-3.293,2.549c-1.733,0.432-3.287-0.178-4.298-1.662c-0.392-0.576-0.469-0.574-0.862,0.025
	c-1.012,1.535-2.341,2.096-3.908,1.57c-1.195-0.4-2.003-1.252-2.484-2.408c-0.812-1.949-0.789-3.984-0.532-6.028
	c0.119-0.958,0.319-1.908,0.49-2.859c0.122-0.676,0.012-0.816-0.692-0.795c-0.543,0.015-1.086,0.049-1.629,0.079
	c-0.317,0.017-0.492,0.194-0.599,0.492c-1.274,3.572-3.124,6.819-5.582,9.71c-0.308,0.363-0.455,0.725-0.434,1.195
	c0.044,0.998,0.06,1.996,0.077,2.996c0.034,1.846-0.148,3.67-0.665,5.443c-0.627,2.146-1.975,3.592-4.218,4.025
	c-1.521,0.295-3.832-0.406-4.564-2.041c-0.567-1.264-0.46-2.52,0.182-3.727c0.799-1.51,2.051-2.633,3.274-3.777
	c0.9-0.842,1.822-1.664,2.731-2.498c0.369-0.338,0.534-1.205,0.288-1.629c-0.203-0.35-0.396-0.113-0.543,0.066
	c-0.548,0.672-1.201,1.201-1.992,1.564c-1.939,0.893-4.028,0.273-5.153-1.531c-0.378-0.607-0.511-0.604-0.878,0.014
	c-0.97,1.629-2.352,2.254-3.958,1.734c-1.183-0.383-1.884-1.246-2.221-2.426c-0.032-0.109-0.076-0.219-0.121-0.326
	C59.464,51.252,59.427,51.238,59.347,51.186z M58.896,45.28c0.065-1.089-0.07-2.198-0.443-3.284c-0.584-1.7-2.369-2.132-3.553-0.789
	c-0.412,0.469-0.723,1.078-0.917,1.677c-0.592,1.823-0.699,3.711-0.526,5.614c0.083,0.939,0.264,1.855,0.704,2.708
	c0.667,1.293,1.956,1.547,2.937,0.473c0.48-0.527,0.868-1.191,1.122-1.859C58.767,48.385,58.963,46.872,58.896,45.28z
	 M95.395,47.542c0.058,0.488,0.139,1.44,0.294,2.378c0.115,0.699,0.39,1.355,0.89,1.887c0.545,0.582,1.214,0.701,1.913,0.344
	c0.869-0.441,1.31-1.232,1.656-2.088c0.693-1.712,0.776-3.512,0.72-5.323c-0.029-0.994-0.101-1.983-0.504-2.928
	c-0.665-1.549-2.36-1.891-3.476-0.633c-0.342,0.385-0.617,0.864-0.806,1.346C95.517,43.985,95.448,45.53,95.395,47.542z
	 M74.273,44.691c-0.094-0.592-0.19-1.601-0.425-2.579c-0.194-0.816-0.679-1.478-1.584-1.653c-0.775-0.15-1.404,0.164-1.928,0.717
	c-0.817,0.867-1.12,1.974-1.378,3.087c-0.312,1.341-0.322,2.713-0.232,4.075c0.071,1.096,0.279,2.18,0.877,3.139
	c0.528,0.854,1.292,1.092,2.184,0.65c0.688-0.342,1.118-0.938,1.433-1.611C74.019,48.803,74.166,46.962,74.273,44.691z
	 M74.675,58.113c-0.03-0.008-0.061-0.014-0.089-0.02c0-0.572,0.015-1.145-0.009-1.715c-0.008-0.17-0.127-0.336-0.195-0.502
	c-0.146,0.076-0.32,0.127-0.438,0.236c-0.353,0.33-0.695,0.676-1.02,1.033c-1.24,1.371-2.509,2.738-2.995,4.584
	c-0.146,0.557-0.18,1.23-0.006,1.766c0.392,1.207,1.684,1.541,2.823,0.842c0.825-0.504,1.148-1.336,1.316-2.199
	C74.323,60.809,74.476,59.455,74.675,58.113z"/>
<path fill-rule="evenodd" clip-rule="evenodd" fill="#F2F2F2" d="M10.661,36.514c0,2.704,0.037,5.41-0.016,8.111
	c-0.029,1.449-0.105,2.913-0.354,4.337c-0.318,1.828-1.188,3.373-2.946,4.25C7.24,53.264,7.13,53.328,7.02,53.336
	c-0.169,0.012-0.429,0.039-0.493-0.051c-0.085-0.123-0.072-0.367-0.017-0.531c0.505-1.498,0.788-3.033,0.796-4.616
	c0.021-4.187,0.032-8.374,0.057-12.563c0.013-2.115,0.055-4.23,0.054-6.345c0-0.309-0.166-0.617-0.254-0.926
	c-0.259,0.173-0.561,0.306-0.771,0.525c-0.979,1.024-1.623,2.249-2.088,3.581c-0.479,1.375-0.708,2.777-0.626,4.233
	c0.056,1.001,0.324,1.929,0.856,2.781c0.046,0.074,0.114,0.142,0.137,0.224c0.076,0.265,0.134,0.533,0.2,0.802
	c-0.307-0.004-0.649,0.081-0.916-0.026c-2.136-0.848-3.44-3.09-3.021-5.411c0.652-3.613,2.555-6.412,5.735-8.315
	c1.164-0.697,2.272-0.496,3.377,0.099c0.421,0.226,0.623,0.575,0.62,1.078C10.653,30.755,10.661,33.635,10.661,36.514z"/>
</svg>
