<?xml version="1.0" encoding="utf-8"?>
<!-- Generator: Adobe Illustrator 16.0.3, SVG Export Plug-In . SVG Version: 6.00 Build 0)  -->
<!DOCTYPE svg PUBLIC "-//W3C//DTD SVG 1.1//EN" "http://www.w3.org/Graphics/SVG/1.1/DTD/svg11.dtd">
<svg version="1.1" id="Capa_1" xmlns="http://www.w3.org/2000/svg" xmlns:xlink="http://www.w3.org/1999/xlink" x="0px" y="0px"
	 width="100px" height="100px" viewBox="0 0 100 100" enable-background="new 0 0 100 100" xml:space="preserve">
<g>
	<path fill-rule="evenodd" clip-rule="evenodd" fill="#F2F2F2" d="M23.309,57.065c0,0.639,0,1.167,0,1.695
		c0,7.813,0.001,15.627-0.002,23.439c0,1.864-0.149,2.012-2.007,2.015c-5.149,0.003-10.298,0.005-15.446-0.003
		c-1.613-0.002-1.828-0.21-1.829-1.784C4.022,57.722,4.029,33.017,4.003,8.311C4.002,7.068,4.439,6.556,5.672,6.375
		c8.785-1.292,17.62-1.68,26.479-1.377c5.582,0.191,11.094,1.025,16.138,3.589c8.829,4.49,12.871,11.997,12.871,21.684
		c0,6.799-1.976,13.017-6.875,18.01c-3.403,3.468-7.6,5.6-12.204,6.994c-5.56,1.688-11.263,2.019-17.023,1.793
		C24.531,57.048,24.003,57.065,23.309,57.065z M23.379,41.487c1.485,0.071,2.915,0.179,4.345,0.199
		c3.106,0.042,6.126-0.354,8.895-1.911c3.921-2.206,5.821-6.406,5.123-11.339c-0.566-4.008-3.296-6.998-7.784-7.714
		c-3.034-0.484-6.186-0.235-9.284-0.336c-1.132-0.036-1.397,0.502-1.388,1.572c0.047,6.05,0.021,12.1,0.024,18.151
		C23.311,40.506,23.349,40.903,23.379,41.487z"/>
	<path fill-rule="evenodd" clip-rule="evenodd" fill="#F2F2F2" d="M71.739,94.259c-4.87-0.112-10.135-0.896-15.099-3.222
		c-1.087-0.508-1.418-1.087-1.087-2.291c0.9-3.275,1.655-6.589,2.494-9.88c0.338-1.33,0.793-1.521,2.025-0.888
		c3.797,1.957,7.807,3.192,12.086,3.362c1.25,0.049,2.538-0.13,3.767-0.397c1.152-0.252,2.114-0.882,2.327-2.227
		c0.223-1.416-0.205-2.592-1.497-3.199c-2.033-0.952-4.179-1.667-6.2-2.636c-2.646-1.271-5.411-2.421-7.792-4.097
		c-9.074-6.388-7.082-17.88-1.163-23.292c3.689-3.375,8.11-5.018,12.988-5.536c5.923-0.629,11.688,0.122,17.227,2.356
		c1.56,0.63,1.598,0.795,1.188,2.398c-0.789,3.094-1.578,6.187-2.369,9.281c-0.369,1.437-0.813,1.643-2.213,0.984
		c-3.457-1.625-7.042-2.664-10.913-2.377c-0.525,0.039-1.055,0.142-1.562,0.285c-1.229,0.35-2.115,1.043-2.308,2.408
		c-0.194,1.377,0.59,2.244,1.669,2.727c2.909,1.303,5.886,2.458,8.818,3.71c3.877,1.656,7.336,3.873,9.438,7.688
		c3.561,6.458,2.785,17.548-7.868,22.327C81.422,93.661,76.91,94.258,71.739,94.259z"/>
</g>
</svg>
