<?xml version="1.0" encoding="utf-8"?>
<!-- Generator: Adobe Illustrator 16.0.3, SVG Export Plug-In . SVG Version: 6.00 Build 0)  -->
<!DOCTYPE svg PUBLIC "-//W3C//DTD SVG 1.1//EN" "http://www.w3.org/Graphics/SVG/1.1/DTD/svg11.dtd">
<svg version="1.1" id="Capa_1" xmlns="http://www.w3.org/2000/svg" xmlns:xlink="http://www.w3.org/1999/xlink" x="0px" y="0px"
	 width="100px" height="100px" viewBox="0 0 100 100" enable-background="new 0 0 100 100" xml:space="preserve">
<g>
	<path fill-rule="evenodd" clip-rule="evenodd" fill="#F2F2F2" d="M2.497,9.7C21.139,7.21,39.71,4.732,58.424,2.234
		c0,2.627,0,5.161,0,7.829c0.598,0.028,1.073,0.069,1.548,0.07c8.89,0.003,17.776,0,26.665,0.003
		c4.597,0.002,7.002,2.405,7.003,7.014c0.004,21.562,0.004,43.124,0,64.686c0,4.689-2.38,7.061-7.07,7.061
		c-8.847,0.003-17.693,0.001-26.541,0.001c-0.482,0-0.962,0-1.563,0c0,2.764,0,5.38,0,8.144c-2.078-0.275-4.016-0.522-5.952-0.788
		c-11.898-1.626-23.797-3.253-35.695-4.881c-4.36-0.596-8.715-1.223-13.081-1.774c-1.025-0.129-1.328-0.511-1.327-1.559
		c0.032-25.677,0.025-51.354,0.027-77.032C2.438,10.603,2.473,10.199,2.497,9.7z M58.511,29.921
		c0.496,0.025,0.861,0.059,1.227,0.059c8.063,0.003,16.125,0.002,24.188,0.005c0.452,0,0.91-0.014,1.354,0.051
		c1.342,0.198,2.296,1.421,2.323,2.925c0.026,1.435-0.873,2.81-2.08,2.98c-0.376,0.054-0.812-0.292-1.219-0.456
		c0.217-0.375,0.414-0.764,0.664-1.116c0.078-0.111,0.386-0.082,0.433-0.186c0.235-0.519,0.646-1.11,0.545-1.578
		c-0.078-0.36-0.887-0.863-1.255-0.782c-0.446,0.098-0.862,0.697-1.117,1.173c-0.171,0.322-0.044,0.805-0.044,1.217
		c-0.001,10.324,0.003,20.649-0.004,30.975c-0.001,2.412-0.861,3.253-3.269,3.253c-6.746-0.002-13.492-0.009-20.237-0.013
		c-0.478-0.001-0.957,0-1.505,0c-0.026,0.578-0.059,0.981-0.059,1.384c-0.003,4.729,0.032,9.462-0.029,14.191
		c-0.014,1.137,0.308,1.45,1.441,1.445c8.968-0.047,17.935-0.025,26.903-0.029c2.451-0.001,3.386-0.907,3.387-3.338
		c0.006-21.719,0.006-43.438-0.001-65.158c-0.001-2.382-0.913-3.275-3.299-3.276c-9.009-0.006-18.018-0.004-27.026,0.001
		c-0.436,0-0.869,0.059-1.321,0.092C58.511,19.179,58.511,24.474,58.511,29.921z M31.754,63.072
		c1.952,0.184,3.786,0.426,5.625,0.511c2.841,0.132,5.707,0.158,8.374-1.019c2.407-1.065,3.879-2.951,3.957-5.633
		c0.078-2.695-1.275-4.604-3.701-5.756c-0.35-0.166-0.696-0.338-1.17-0.568c0.337-0.187,0.509-0.29,0.686-0.378
		c1.846-0.929,3.104-2.307,3.265-4.45c0.213-2.861-1.54-5.016-4.826-5.762c-3.891-0.884-7.776-0.311-11.634,0.348
		c-0.241,0.041-0.544,0.641-0.55,0.985c-0.046,2.714-0.026,5.43-0.026,8.145C31.754,53.936,31.754,58.376,31.754,63.072z
		 M29.274,40.424c-1.638,0-3.146-0.04-4.65,0.039c-0.252,0.013-0.604,0.496-0.699,0.822c-1.012,3.515-1.999,7.037-2.957,10.568
		c-0.479,1.761-0.883,3.541-1.322,5.313c-0.327-0.407-0.424-0.799-0.524-1.189c-1.215-4.736-2.417-9.478-3.671-14.204
		c-0.096-0.362-0.568-0.881-0.875-0.888c-1.304-0.026-2.612,0.113-4.028,0.198c0.088,0.45,0.13,0.81,0.23,1.152
		c1.809,6.194,3.667,12.374,5.405,18.586c0.368,1.319,0.965,1.81,2.283,1.693c0.812-0.071,1.65-0.011,2.461,0.1
		c0.912,0.127,1.285-0.215,1.555-1.085c1.357-4.355,2.789-8.688,4.191-13.029C27.543,45.812,28.407,43.12,29.274,40.424z
		 M75.529,63.369c-0.437,0-0.881,0-1.325,0c-4.318,0-8.636,0-12.955,0c-2.985,0-2.985,0-2.753,2.991
		c0.007,0.072,0.079,0.138,0.127,0.219c5.668,0,11.34,0,16.906,0C75.529,65.505,75.529,64.538,75.529,63.369z M78.367,37.767
		c0.379-1.19-0.13-1.401-1.076-1.396c-5.218,0.028-10.438,0.012-15.656,0.017c-0.316,0-0.634,0.061-0.975,0.095
		c0,0.466,0,0.851,0,1.284C66.606,37.767,72.467,37.767,78.367,37.767z M60.645,41.41c5.992,0,11.846,0,17.743,0
		c0-0.479,0-0.891,0-1.324c-5.962,0-11.817,0-17.743,0C60.645,40.538,60.645,40.929,60.645,41.41z M60.637,45.498
		c5.954,0,11.844,0,17.848,0c-0.022-0.476-0.039-0.856-0.06-1.246c-6.005,0-11.891,0-17.788,0
		C60.637,44.718,60.637,45.077,60.637,45.498z M60.634,49.129c6.015,0,11.871,0,17.776,0c0-0.465,0-0.848,0-1.257
		c-5.972,0-11.855,0-17.776,0C60.634,48.333,60.634,48.688,60.634,49.129z M78.345,51.664c-5.872,0-11.763,0-17.631,0
		c-0.376,1.063-0.019,1.384,0.997,1.378c5.215-0.031,10.432-0.03,15.649-0.001C78.372,53.046,78.737,52.725,78.345,51.664z"/>
	<path fill-rule="evenodd" clip-rule="evenodd" fill="#F2F2F2" d="M36.985,59.849c0-2.485,0-4.605,0-6.821
		c1.733-0.108,3.396-0.158,4.97,0.615c1.193,0.587,1.754,1.562,1.719,2.883c-0.034,1.274-0.591,2.363-1.805,2.667
		C40.317,59.583,38.68,59.638,36.985,59.849z"/>
	<path fill-rule="evenodd" clip-rule="evenodd" fill="#F2F2F2" d="M37.015,43.491c1.414,0.07,2.758,0.039,4.071,0.23
		c1.151,0.168,1.902,0.943,2.014,2.162c0.113,1.245-0.43,2.272-1.578,2.636c-1.405,0.445-2.905,0.59-4.507,0.892
		C37.015,47.324,37.015,45.584,37.015,43.491z"/>
</g>
</svg>
